HIERARCHY
ROOT Hips
{
    OFFSET 0.000000 0.000000 0.000000
    CHANNELS 6 Xposition Yposition Zposition Zrotation Xrotation Yrotation
    JOINT Spine
    {
        OFFSET -0.000000 0.068295 0.000000
        CHANNELS 3 Zrotation Xrotation Yrotation
        JOINT Spine1
        {
            OFFSET -0.000000 0.198479 0.000000
            CHANNELS 3 Zrotation Xrotation Yrotation
            JOINT Neck
            {
                OFFSET -0.000000 0.215136 0.000000
                CHANNELS 3 Zrotation Xrotation Yrotation
                JOINT Head
                {
                    OFFSET -0.000000 0.090366 0.016657
                    CHANNELS 3 Zrotation Xrotation Yrotation
                    End Site
                    {
                        OFFSET -0.000000 0.166573 0.000000
                    }
                }
            }
            JOINT LeftShoulder
            {
                OFFSET 0.033522 0.175145 -0.001055
                CHANNELS 3 Zrotation Xrotation Yrotation
                JOINT LeftArm
                {
                    OFFSET 0.121214 0.000000 0.000000
                    CHANNELS 3 Zrotation Xrotation Yrotation
                    JOINT LeftForeArm
                    {
                        OFFSET 0.261115 0.000000 0.000000
                        CHANNELS 3 Zrotation Xrotation Yrotation
                        JOINT LeftHand
                        {
                            OFFSET 0.230096 0.000000 0.000000
                            CHANNELS 3 Zrotation Xrotation Yrotation
                            End Site
                            {
                                OFFSET 0.000000 -0.124930 0.000000
                            }
                        }
                    }
                }
            }
            JOINT RightShoulder
            {
                OFFSET -0.033103 0.175145 -0.001055
                CHANNELS 3 Zrotation Xrotation Yrotation
                JOINT RightArm
                {
                    OFFSET -0.121214 0.000000 0.000000
                    CHANNELS 3 Zrotation Xrotation Yrotation
                    JOINT RightForeArm
                    {
                        OFFSET -0.261115 0.000000 0.000000
                        CHANNELS 3 Zrotation Xrotation Yrotation
                        JOINT RightHand
                        {
                            OFFSET -0.230096 0.000000 0.000000
                            CHANNELS 3 Zrotation Xrotation Yrotation
                            End Site
                            {
                                OFFSET -0.000000 -0.124930 0.000000
                            }
                        }
                    }
                }
            }
        }
    }
    JOINT LeftUpLeg
    {
        OFFSET 0.083287 0.000000 0.000000
        CHANNELS 3 Zrotation Xrotation Yrotation
        JOINT LeftLeg
        {
            OFFSET -0.000000 -0.281128 0.000000
            CHANNELS 3 Zrotation Xrotation Yrotation
            JOINT LeftFoot
            {
                OFFSET -0.000000 -0.491911 0.000000
                CHANNELS 3 Zrotation Xrotation Yrotation
                JOINT LeftToeBase
                {
                    OFFSET -0.000000 -0.054136 0.124930
                    CHANNELS 3 Zrotation Xrotation Yrotation
                    End Site
                    {
                        OFFSET -0.000000 0.000000 0.033315
                    }
                }
            }
        }
    }
    JOINT RightUpLeg
    {
        OFFSET -0.083287 0.000000 0.000000
        CHANNELS 3 Zrotation Xrotation Yrotation
        JOINT RightLeg
        {
            OFFSET -0.000000 -0.281128 0.000000
            CHANNELS 3 Zrotation Xrotation Yrotation
            JOINT RightFoot
            {
                OFFSET -0.000000 -0.491911 0.000000
                CHANNELS 3 Zrotation Xrotation Yrotation
                JOINT RightToeBase
                {
                    OFFSET -0.000000 -0.054136 0.124930
                    CHANNELS 3 Zrotation Xrotation Yrotation
                    End Site
                    {
                        OFFSET -0.000000 0.000000 0.033315
                    }
                }
            }
        }
    }
}
MOTION
Frames:    14
Frame Time:    0.010000
0.060626    0.812637    0.012734    -4.432474    4.543794    -111.980469    4.341990    2.210357    6.042364    -2.344307    -0.825254    2.024523    -0.929979    -1.152174    2.051195    -10.383005    1.000073    3.436750    14.835970    3.417043    3.757264    -20.739384    -6.601714    1.721884    0.195234    6.698289    -4.263066    96.356804    0.174100    -6.715182    -16.471632    -6.261251    2.529086    21.238571    8.782131    -0.148066    -1.621050    -2.613050    -4.503531    -91.931129    -1.247695    -2.697784    -1.912943    18.446579    16.233023    -1.345567    -4.008256    -0.971017    8.541670    -9.275355    53.566723    0.000000    0.000000    0.000000    4.807052    9.199721    7.795869    -0.461784    5.943541    -3.924635    -1.750233    -18.805439    -29.939077    0.000000    0.000000    0.000000    
0.060540    0.812631    0.012786    -4.429003    4.546301    -112.006645    4.346492    2.197100    6.057487    -2.328064    -0.805844    2.029949    -0.938214    -1.163319    2.030904    -10.392156    1.008233    3.416897    14.832124    3.422035    3.740119    -20.767271    -6.492541    1.646852    0.250046    6.632039    -4.234214    96.253174    0.020925    -6.642379    -16.457336    -6.291085    2.540773    21.221930    8.817855    -0.107230    -1.672824    -2.682037    -4.431550    -93.025406    -1.092270    -2.775566    -1.903082    18.425209    16.228411    -1.365872    -3.930837    -0.956632    8.575037    -9.152674    53.558445    0.000000    0.000000    0.000000    4.804332    9.197845    7.805207    -0.469680    5.947848    -3.909846    -1.752406    -18.813345    -29.943352    0.000000    0.000000    0.000000    
0.060458    0.812612    0.012839    -4.422717    4.551786    -112.026901    4.356244    2.197127    6.065593    -2.325627    -0.810501    2.032624    -0.931762    -1.165297    2.006844    -10.383467    1.016417    3.392388    14.851862    3.423884    3.740625    -20.789721    -6.452254    1.585896    0.235425    6.589227    -4.266235    96.363190    0.186116    -6.608304    -16.439814    -6.317366    2.563849    21.342375    9.151114    0.011712    -1.885071    -2.947883    -4.601116    -91.498390    -1.762729    -3.046596    -1.912984    18.429516    16.238783    -1.353569    -3.964520    -0.960829    8.561553    -9.271631    53.593239    0.000000    0.000000    0.000000    4.805508    9.197645    7.800385    -0.474670    5.947373    -3.905319    -1.715127    -18.838614    -29.881577    0.000000    0.000000    0.000000    
0.060406    0.812624    0.012888    -4.412782    4.558712    -112.044594    4.371518    2.192246    6.080918    -2.323145    -0.806827    2.037850    -0.917029    -1.164833    1.962213    -10.426995    1.001474    3.352822    14.857321    3.448035    3.720570    -20.784355    -6.531452    1.536215    0.208744    6.651989    -4.275371    96.415169    0.129316    -6.666991    -16.426493    -6.359444    2.571446    21.332106    9.172271    0.028186    -1.884128    -2.919819    -4.505387    -91.752686    -1.896692    -3.022858    -1.902071    18.417019    16.242790    -1.364262    -3.945391    -0.941141    8.570398    -9.280345    53.575199    0.000000    0.000000    0.000000    4.808600    9.201789    7.811142    -0.478835    5.932580    -3.897411    -1.751740    -18.818687    -29.932547    0.000000    0.000000    0.000000    
0.060270    0.812592    0.012955    -4.416944    4.551471    -112.053810    4.377710    2.193537    6.086620    -2.339843    -0.807579    2.039702    -0.893556    -1.176078    1.954784    -10.434696    1.008516    3.349807    14.886292    3.447598    3.726270    -20.808517    -6.471248    1.465600    0.206745    6.501668    -4.330807    96.367653    0.115233    -6.515873    -16.408007    -6.399310    2.582000    21.314600    9.145018    0.038417    -1.860917    -2.904616    -4.415943    -91.813263    -1.856281    -3.005655    -1.909758    18.419592    16.240456    -1.381388    -3.903783    -0.946537    8.587506    -9.204728    53.544765    0.000000    0.000000    0.000000    4.786862    9.219210    7.807650    -0.475701    5.918635    -3.887566    -1.738947    -18.840120    -29.897127    0.000000    0.000000    0.000000    
0.060184    0.812576    0.013014    -4.418541    4.550718    -112.065613    4.382255    2.205669    6.094898    -2.337935    -0.815464    2.042489    -0.903293    -1.193375    1.949494    -10.414622    1.021700    3.341630    14.909980    3.410544    3.717945    -20.832808    -6.444171    1.436011    0.201068    6.493759    -4.362551    96.457321    0.084933    -6.506199    -16.413784    -6.435109    2.584009    21.322739    9.193575    0.068276    -1.880875    -2.985507    -4.363263    -91.565582    -1.758408    -3.081112    -1.920356    18.422695    16.256001    -1.380741    -3.898819    -0.934688    8.579912    -9.215792    53.530933    0.000000    0.000000    0.000000    4.779184    9.231415    7.801199    -0.480854    5.907667    -3.886723    -1.736867    -18.849569    -29.882797    0.000000    0.000000    0.000000    
0.060097    0.812561    0.013084    -4.413879    4.555216    -112.075409    4.397141    2.212591    6.104551    -2.335451    -0.812440    2.045968    -0.906546    -1.255725    1.971055    -10.403521    1.108942    3.370261    14.919436    3.391448    3.727725    -20.854929    -6.428068    1.373812    0.194785    6.476192    -4.386425    96.540977    0.135748    -6.491406    -16.425690    -6.452969    2.571743    21.341658    9.320514    0.138558    -1.911499    -2.980418    -4.390256    -91.672440    -1.758227    -3.079289    -1.936172    18.440733    16.269575    -1.371170    -3.953655    -0.923163    8.575766    -9.308387    53.555031    0.000000    0.000000    0.000000    4.776725    9.244965    7.833662    -0.482384    5.889235    -3.898917    -1.752125    -18.837149    -29.904232    0.000000    0.000000    0.000000    
0.060001    0.812542    0.013142    -4.403372    4.548422    -112.079056    4.401510    2.203211    6.101449    -2.335189    -0.810226    2.044902    -0.911956    -1.271282    1.974827    -10.390971    1.113306    3.372256    14.952819    3.361468    3.725586    -20.925728    -6.315416    1.310280    0.267507    6.430210    -4.341158    96.508102    0.122287    -6.447275    -16.353432    -6.313263    2.591866    21.225056    9.267563    0.245841    -1.890695    -2.906786    -4.432141    -92.037392    -1.871310    -3.013169    -1.950179    18.441954    16.270176    -1.367427    -3.968400    -0.931701    8.564082    -9.328179    53.553730    0.000000    0.000000    0.000000    4.772378    9.248684    7.839542    -0.492683    5.872723    -3.898384    -1.759375    -18.843258    -29.894863    0.000000    0.000000    0.000000    
0.059925    0.812537    0.013203    -4.400049    4.551247    -112.077293    4.413951    2.206817    6.100675    -2.334161    -0.815939    2.044633    -0.910870    -1.262271    1.969860    -10.396399    1.123890    3.368920    14.949226    3.366288    3.707110    -20.926237    -6.291945    1.269389    0.281359    6.382581    -4.361659    96.382828    0.075382    -6.397468    -16.349144    -6.333610    2.624609    21.230911    9.364502    0.258989    -1.932722    -2.961731    -4.430289    -92.065742    -1.859748    -3.069954    -1.949200    18.420532    16.292692    -1.365061    -3.905116    -0.932762    8.589645    -9.230737    53.517307    0.000000    0.000000    0.000000    4.764638    9.262885    7.835637    -0.488265    5.852325    -3.879088    -1.787488    -18.838167    -29.933058    0.000000    0.000000    0.000000    
0.059845    0.812529    0.013264    -4.386941    4.545527    -112.079277    4.423179    2.194609    6.099911    -2.333004    -0.807745    2.044471    -0.927051    -1.291304    1.990503    -10.356906    1.161497    3.386290    14.959019    3.357123    3.697883    -20.950819    -6.284829    1.235104    0.298001    6.439473    -4.350234    96.446541    0.042531    -6.453154    -16.354755    -6.378534    2.645623    21.225729    9.400483    0.266290    -1.954791    -2.925004    -4.410840    -91.951820    -1.988868    -3.034091    -1.950062    18.433964    16.274857    -1.386236    -3.936585    -0.934391    8.592755    -9.208108    53.533470    0.000000    0.000000    0.000000    4.764733    9.256190    7.850962    -0.496552    5.848085    -3.894403    -1.762758    -18.845346    -29.910528    0.000000    0.000000    0.000000    
0.059761    0.812517    0.013322    -4.385066    4.544291    -112.073906    4.432299    2.204883    6.094132    -2.339773    -0.822102    2.042372    -0.906672    -1.284005    1.996621    -10.370866    1.162319    3.397058    14.943716    3.379040    3.692031    -20.938417    -6.260650    1.185381    0.306828    6.451582    -4.340847    96.509064    0.086930    -6.468115    -16.345640    -6.399086    2.667852    21.220026    9.453693    0.283781    -1.965003    -2.911709    -4.448263    -92.112923    -1.983712    -3.024548    -1.983979    18.435888    16.308804    -1.344037    -3.977782    -0.932905    8.544936    -9.331469    53.530895    0.000000    0.000000    0.000000    4.766293    9.268505    7.840957    -0.511539    5.834383    -3.901607    -1.773133    -18.836845    -29.916029    0.000000    0.000000    0.000000    
0.059675    0.812507    0.013365    -4.372372    4.544376    -112.074287    4.447073    2.205099    6.091876    -2.347903    -0.830793    2.041497    -0.890956    -1.296892    2.016817    -10.374777    1.177512    3.421845    14.939367    3.370568    3.689058    -20.936226    -6.216343    1.158019    0.324113    6.471452    -4.347361    96.526215    0.138016    -6.491573    -16.338587    -6.395844    2.674557    21.203146    9.501380    0.331668    -2.004861    -2.996383    -4.438507    -91.697418    -1.975493    -3.103268    -1.974866    18.451216    16.314861    -1.369238    -4.006494    -0.933675    8.562784    -9.340823    53.523766    0.000000    0.000000    0.000000    4.775968    9.263885    7.834691    -0.530731    5.831758    -3.894486    -1.766102    -18.850300    -29.900574    0.000000    0.000000    0.000000    
0.059582    0.812505    0.013412    -4.364129    4.539649    -112.064690    4.448963    2.202994    6.088356    -2.343247    -0.825805    2.040441    -0.882525    -1.317060    2.033536    -10.375718    1.181119    3.440736    14.943277    3.366002    3.665915    -20.947733    -6.189358    1.150218    0.363400    6.422499    -4.383367    96.374229    0.070405    -6.440272    -16.349892    -6.404407    2.668540    21.182497    9.479818    0.358264    -1.959033    -2.915689    -4.432539    -92.090919    -1.964523    -3.027290    -1.984271    18.452724    16.312698    -1.363294    -4.017612    -0.962726    8.540895    -9.342325    53.531929    0.000000    0.000000    0.000000    4.770393    9.263456    7.844763    -0.525386    5.831002    -3.917607    -1.764237    -18.822067    -29.910299    0.000000    0.000000    0.000000    
0.059520    0.812501    0.013446    -4.357688    4.540278    -112.055855    4.453635    2.218064    6.081344    -2.343598    -0.849349    2.037851    -0.874805    -1.299787    2.040556    -10.373368    1.158213    3.446401    14.934510    3.378820    3.654760    -20.936075    -6.167236    1.129789    0.365258    6.478482    -4.364821    96.395287    0.015647    -6.493239    -16.403481    -6.565435    2.675049    21.268114    9.672322    0.331168    -1.985938    -2.918429    -4.465059    -92.098869    -1.964126    -3.031732    -1.983406    18.455360    16.316267    -1.366679    -4.027028    -0.931177    8.552765    -9.333606    53.506149    0.000000    0.000000    0.000000    4.770172    9.272833    7.838886    -0.531170    5.809201    -3.901949    -1.775487    -18.849234    -29.914873    0.000000    0.000000    0.000000    
